<?xml version="1.0" encoding="UTF-8"?>
<svg xmlns="http://www.w3.org/2000/svg" xmlns:xlink="http://www.w3.org/1999/xlink" width="278.150mm" height="167.650mm" viewBox="-0.000013 -0.000008 278.149994 167.649994">
    <path transform="matrix(-0,-1,-1,0,25.075001,83.824997)" style="stroke:#0000ff;stroke-width:0.05mm;fill:none" d="M-52.924999,20.075001L-52.924999,0.075L-47.575001,0.075L-47.575001,20.075001L-19.424999,20.075001L-19.424999,0.075L-14.075,0.075L-14.075,20.075001L14.075,20.075001L14.075,0.075L19.424999,0.075L19.424999,20.075001L47.575001,20.075001L47.575001,0.075L52.924999,0.075L52.924999,20.075001L78.675003,20.075001L78.675003,25.075001L83.824997,25.075001L83.824997,-25.075001L-83.824997,-25.075001L-83.824997,25.075001L-78.675003,25.075001L-78.675003,20.075001L-52.924999,20.075001z"/>
    <path transform="matrix(-0,-1,-1,0,76.857903,83.824997)" style="stroke:#0000ff;stroke-width:0.05mm;fill:none" d="M-52.924999,-0.075L-52.924999,-25.075001L-83.824997,-25.075001L-83.824997,25.075001L-78.675003,25.075001L-78.675003,20.075001L78.675003,20.075001L78.675003,25.075001L83.824997,25.075001L83.824997,-25.075001L52.924999,-25.075001L52.924999,-0.075L47.575001,-0.075L47.575001,-25.075001L19.424999,-25.075001L19.424999,-0.075L14.075,-0.075L14.075,-25.075001L-14.075,-25.075001L-14.075,-0.075L-19.424999,-0.075L-19.424999,-25.075001L-47.575001,-25.075001L-47.575001,-0.075L-52.924999,-0.075z"/>
    <path transform="matrix(1,0,0,-1,191.574997,30.075001)" style="stroke:#0000ff;stroke-width:0.05mm;fill:none" d="M86.574997,-30.075001L-86.574997,-30.075001L-86.574997,30.075001L86.574997,30.075001L86.574997,-30.075001z"/>
    <path transform="matrix(1,0,0,-1,191.574997,92.074997)" style="stroke:#0000ff;stroke-width:0.05mm;fill:none" d="M86.574997,-30.075001L-86.574997,-30.075001L-86.574997,30.075001L86.574997,30.075001L86.574997,-30.075001z"/>
</svg>
